<svg xmlns="http://www.w3.org/2000/svg" xmlns:xlink="http://www.w3.org/1999/xlink" version="1.1" x="0px" y="0px" viewBox="0 0 100 100" enable-background="new 0 0 100 100" xml:space="preserve"><path d="M40.085,22.416c-0.32-1.053-1.292-1.773-2.392-1.773s-2.072,0.72-2.392,1.773L18.973,76.129  c-0.401,1.321,0.344,2.717,1.665,3.119c0.242,0.074,0.487,0.108,0.728,0.108c1.072,0,2.063-0.695,2.391-1.773l3.941-12.964h19.99  l3.941,12.964c0.401,1.321,1.799,2.065,3.119,1.665c1.321-0.402,2.066-1.798,1.665-3.119L40.085,22.416z M29.217,59.62l8.475-27.881  l8.475,27.881H29.217z"></path><path d="M70.682,46.893c-6.528,0-11.883,5.28-12.108,5.505c-0.977,0.976-0.977,2.559,0,3.535c0.976,0.977,2.56,0.977,3.535,0  c0.041-0.04,4.164-4.04,8.573-4.04c3.62,0,5.455,1.032,5.455,3.068v2.273h-4.659c-1.966,0-5.294,0.477-8.207,1.821  c-4.014,1.853-6.225,4.919-6.225,8.633c0,6.297,4.503,10.057,12.045,10.057c2.375,0,5.012-1.122,7.126-2.298  c0.27,1.09,1.246,1.901,2.42,1.901c1.381,0,2.5-1.119,2.5-2.5V54.96C81.136,51.06,78.39,46.893,70.682,46.893z M62.046,67.688  c0-4.506,7.88-5.454,9.431-5.454h4.659v7.369c-1.913,1.326-5.074,3.142-7.045,3.142C62.046,72.744,62.046,69.07,62.046,67.688z"></path></svg>