<svg xmlns="http://www.w3.org/2000/svg" xmlns:xlink="http://www.w3.org/1999/xlink" version="1.1" x="0px" y="0px" viewBox="0 0 100 100" enable-background="new 0 0 100 100" xml:space="preserve"><g><path d="M36.978,33.216c-0.879,0-1.592,0.712-1.592,1.592v23.874c0,8.739,5.873,14.615,14.614,14.615   c8.74,0,14.614-5.876,14.614-14.615V27.211C64.614,13.718,55.896,5,42.404,5c-13.493,0-22.211,8.718-22.211,22.211v37.981   C20.193,83.3,31.893,95,50,95s29.808-11.7,29.808-29.808V34.808c0-0.88-0.713-1.592-1.592-1.592s-1.593,0.712-1.593,1.592v30.385   c0,16.173-10.449,26.624-26.623,26.624c-16.173,0-26.623-10.451-26.623-26.624V27.211c0-14.029,9.828-19.027,19.027-19.027   s19.027,4.998,19.027,19.027v31.471c0,8.428-5.905,11.43-11.431,11.43c-5.526,0-11.43-3.002-11.43-11.43V34.808   C38.57,33.928,37.856,33.216,36.978,33.216z"></path></g></svg>