<svg xmlns="http://www.w3.org/2000/svg" xmlns:xlink="http://www.w3.org/1999/xlink" version="1.1" x="0px" y="0px" viewBox="0 0 32 32" style="enable-background:new 0 0 32 32;" xml:space="preserve"><g><path d="M16,30c-0.186,0-0.372-0.052-0.536-0.155c-5.99-3.799-10.683-8.376-13.948-13.604C0.482,14.585,0,12.933,0,11.043V10.23   c0-2.146,0.839-4.167,2.363-5.691c0.2-0.201,0.407-0.391,0.621-0.571C4.516,2.68,6.405,2,8.448,2c3.045,0,5.9,1.578,7.551,4.1   c1.644-2.521,4.46-4.099,7.45-4.099c2.112,0,4.036,0.68,5.565,1.966c0.215,0.181,0.423,0.372,0.623,0.572   C31.161,6.063,32,8.085,32,10.23v0.813c0,1.89-0.481,3.542-1.516,5.198c-3.267,5.229-7.96,9.806-13.949,13.604   C16.372,29.948,16.186,30,16,30z M8.448,4c-1.566,0-3.01,0.518-4.175,1.498c-0.17,0.143-0.335,0.295-0.495,0.455   C2.631,7.099,2,8.618,2,10.23v0.813c0,1.519,0.374,2.795,1.212,4.138c3.008,4.816,7.308,9.062,12.788,12.63   c5.478-3.566,9.778-7.813,12.788-12.63C29.626,13.839,30,12.562,30,11.043V10.23c0-1.611-0.631-3.13-1.777-4.277   c-0.16-0.161-0.325-0.312-0.496-0.456c-1.47-1.236-3.138-1.496-4.277-1.496c-2.562,0-5.058,1.59-6.209,3.958L16.899,8.66   c-0.335,0.688-1.463,0.688-1.798,0L14.76,7.959C13.59,5.554,11.112,4,8.448,4z"></path></g></svg>