<svg xmlns="http://www.w3.org/2000/svg" xmlns:xlink="http://www.w3.org/1999/xlink" version="1.1" x="0px" y="0px" viewBox="0 0 24 24" style="enable-background:new 0 0 24 24;" xml:space="preserve"><path d="M12,2.055c-5.484,0-9.945,4.461-9.945,9.945S6.516,21.945,12,21.945c5.484,0,9.945-4.461,9.945-9.945S17.484,2.055,12,2.055  z M12,20.995c-4.96,0-8.995-4.035-8.995-8.995c0-4.96,4.035-8.995,8.995-8.995c4.96,0,8.995,4.035,8.995,8.995  C20.995,16.96,16.96,20.995,12,20.995z"></path><path d="M17.908,12.713h-6.65v-6.68c0-0.262-0.213-0.475-0.475-0.475c-0.262,0-0.475,0.213-0.475,0.475v7.155  c0,0.262,0.213,0.475,0.475,0.475h7.125c0.262,0,0.475-0.213,0.475-0.475S18.17,12.713,17.908,12.713z"></path></svg>